<svg aria-hidden="true" style="position: absolute; width: 0; height: 0; overflow: hidden;" version="1.1" xmlns="http://www.w3.org/2000/svg" xmlns:xlink="http://www.w3.org/1999/xlink">
<defs>
<symbol id="icon-logo_big" viewBox="0 0 31 32">
<path fill="#d0ba91" style="fill: var(--color1, #d0ba91)" d="M34.547 1.662h-38.341v34.402h38.341v-34.402z"></path>
<path fill="#5597c1" style="fill: var(--color2, #5597c1)" d="M5.711 29.957c-0.063 0-0.111-0.017-0.145-0.050-0.033-0.037-0.050-0.088-0.050-0.155v-3.172c0-0.067 0.017-0.118 0.050-0.155s0.076-0.055 0.13-0.055c0.053 0 0.091 0.010 0.115 0.030 0.027 0.017 0.057 0.048 0.090 0.095l2.174 2.897h-0.12v-2.823c0-0.063 0.017-0.111 0.050-0.145 0.033-0.037 0.081-0.055 0.145-0.055 0.060 0 0.105 0.018 0.135 0.055 0.033 0.033 0.050 0.081 0.050 0.145v3.187c0 0.063-0.015 0.113-0.045 0.15-0.027 0.033-0.066 0.050-0.12 0.050-0.050 0-0.090-0.010-0.12-0.030s-0.061-0.052-0.095-0.095l-2.169-2.897h0.115v2.818c0 0.067-0.017 0.118-0.050 0.155-0.033 0.033-0.080 0.050-0.14 0.050zM9.103 29.947c-0.066 0-0.116-0.018-0.15-0.055-0.033-0.040-0.050-0.095-0.050-0.165v-2.040c0-0.070 0.017-0.123 0.050-0.16s0.083-0.055 0.15-0.055c0.063 0 0.113 0.018 0.15 0.055s0.055 0.090 0.055 0.16v2.040c0 0.070-0.018 0.125-0.055 0.165-0.033 0.037-0.083 0.055-0.15 0.055zM9.103 26.915c-0.083 0-0.148-0.022-0.194-0.065-0.047-0.047-0.070-0.108-0.070-0.185 0-0.080 0.023-0.14 0.070-0.18 0.047-0.043 0.111-0.065 0.194-0.065 0.086 0 0.151 0.022 0.194 0.065 0.047 0.040 0.070 0.1 0.070 0.18 0 0.076-0.023 0.138-0.070 0.185-0.043 0.043-0.108 0.065-0.194 0.065zM10.841 29.967c-0.243 0-0.452-0.053-0.628-0.16s-0.313-0.254-0.409-0.444c-0.093-0.193-0.14-0.416-0.14-0.668 0-0.193 0.027-0.366 0.080-0.519s0.131-0.283 0.234-0.389c0.103-0.11 0.226-0.193 0.369-0.249 0.146-0.057 0.311-0.085 0.494-0.085 0.12 0 0.244 0.018 0.374 0.055s0.248 0.1 0.354 0.189c0.033 0.023 0.055 0.052 0.065 0.085s0.010 0.067 0 0.1c-0.010 0.030-0.027 0.057-0.050 0.080-0.023 0.020-0.053 0.032-0.090 0.035-0.033 0.003-0.068-0.008-0.105-0.035-0.086-0.067-0.175-0.113-0.264-0.14s-0.176-0.040-0.259-0.040c-0.13 0-0.243 0.022-0.339 0.065-0.096 0.040-0.178 0.098-0.244 0.175s-0.118 0.171-0.155 0.284c-0.033 0.113-0.050 0.244-0.050 0.394 0 0.289 0.068 0.519 0.204 0.688 0.136 0.166 0.331 0.249 0.583 0.249 0.083 0 0.168-0.013 0.254-0.040 0.090-0.027 0.18-0.073 0.269-0.14 0.037-0.027 0.071-0.038 0.105-0.035s0.062 0.017 0.085 0.040c0.023 0.020 0.038 0.047 0.045 0.080 0.010 0.033 0.010 0.067 0 0.1-0.010 0.030-0.032 0.057-0.065 0.080-0.106 0.086-0.223 0.15-0.349 0.189-0.126 0.037-0.249 0.055-0.369 0.055zM12.916 29.967c-0.256 0-0.477-0.050-0.663-0.15-0.183-0.103-0.326-0.248-0.429-0.434-0.1-0.186-0.15-0.409-0.15-0.668 0-0.253 0.050-0.472 0.15-0.658 0.1-0.189 0.236-0.337 0.409-0.444 0.176-0.106 0.379-0.16 0.608-0.16 0.163 0 0.309 0.028 0.439 0.085 0.13 0.053 0.239 0.131 0.329 0.234 0.093 0.103 0.163 0.228 0.209 0.374 0.050 0.146 0.075 0.311 0.075 0.494 0 0.053-0.015 0.093-0.045 0.12-0.030 0.023-0.073 0.035-0.13 0.035h-1.735v-0.264h1.641l-0.080 0.065c0-0.18-0.027-0.331-0.080-0.454-0.053-0.126-0.131-0.223-0.234-0.289-0.1-0.067-0.226-0.1-0.379-0.1-0.17 0-0.314 0.040-0.434 0.12-0.116 0.076-0.204 0.185-0.264 0.324-0.060 0.136-0.090 0.296-0.090 0.479v0.030c0 0.306 0.073 0.539 0.219 0.698 0.15 0.16 0.361 0.239 0.633 0.239 0.113 0 0.224-0.015 0.334-0.045 0.113-0.030 0.223-0.080 0.329-0.15 0.047-0.030 0.088-0.043 0.125-0.040 0.040 0 0.071 0.012 0.095 0.035 0.023 0.020 0.038 0.047 0.045 0.080 0.010 0.030 0.007 0.063-0.010 0.1-0.013 0.037-0.042 0.068-0.085 0.095-0.11 0.080-0.239 0.141-0.389 0.185s-0.298 0.065-0.444 0.065zM16.607 29.957c-0.063 0-0.115-0.015-0.155-0.045s-0.071-0.075-0.095-0.135l-1.371-3.137c-0.023-0.057-0.030-0.103-0.020-0.14 0.010-0.040 0.032-0.071 0.065-0.095 0.037-0.023 0.078-0.035 0.125-0.035 0.063 0 0.11 0.015 0.14 0.045 0.033 0.027 0.060 0.067 0.080 0.12l1.317 3.057h-0.16l1.312-3.062c0.023-0.050 0.052-0.088 0.085-0.115 0.033-0.030 0.080-0.045 0.14-0.045 0.047 0 0.085 0.012 0.115 0.035 0.033 0.023 0.053 0.055 0.060 0.095 0.010 0.040 0.003 0.086-0.020 0.14l-1.371 3.137c-0.023 0.060-0.055 0.105-0.095 0.135-0.037 0.030-0.086 0.045-0.15 0.045zM18.771 29.947c-0.067 0-0.116-0.018-0.15-0.055-0.033-0.040-0.050-0.095-0.050-0.165v-2.040c0-0.070 0.017-0.123 0.050-0.16s0.083-0.055 0.15-0.055c0.063 0 0.113 0.018 0.15 0.055s0.055 0.090 0.055 0.16v2.040c0 0.070-0.018 0.125-0.055 0.165-0.033 0.037-0.083 0.055-0.15 0.055zM18.771 26.915c-0.083 0-0.148-0.022-0.195-0.065-0.047-0.047-0.070-0.108-0.070-0.185 0-0.080 0.023-0.14 0.070-0.18 0.047-0.043 0.111-0.065 0.195-0.065 0.086 0 0.151 0.022 0.195 0.065 0.047 0.040 0.070 0.1 0.070 0.18 0 0.076-0.023 0.138-0.070 0.185-0.043 0.043-0.108 0.065-0.195 0.065zM20.573 29.967c-0.256 0-0.477-0.050-0.663-0.15-0.183-0.103-0.326-0.248-0.429-0.434-0.1-0.186-0.15-0.409-0.15-0.668 0-0.253 0.050-0.472 0.15-0.658 0.1-0.189 0.236-0.337 0.409-0.444 0.176-0.106 0.379-0.16 0.608-0.16 0.163 0 0.309 0.028 0.439 0.085 0.13 0.053 0.239 0.131 0.329 0.234 0.093 0.103 0.163 0.228 0.209 0.374 0.050 0.146 0.075 0.311 0.075 0.494 0 0.053-0.015 0.093-0.045 0.12-0.030 0.023-0.073 0.035-0.13 0.035h-1.735v-0.264h1.641l-0.080 0.065c0-0.18-0.027-0.331-0.080-0.454-0.053-0.126-0.131-0.223-0.234-0.289-0.1-0.067-0.226-0.1-0.379-0.1-0.17 0-0.314 0.040-0.434 0.12-0.116 0.076-0.204 0.185-0.264 0.324-0.060 0.136-0.090 0.296-0.090 0.479v0.030c0 0.306 0.073 0.539 0.219 0.698 0.15 0.16 0.361 0.239 0.633 0.239 0.113 0 0.224-0.015 0.334-0.045 0.113-0.030 0.223-0.080 0.329-0.15 0.047-0.030 0.088-0.043 0.125-0.040 0.040 0 0.071 0.012 0.095 0.035 0.023 0.020 0.038 0.047 0.045 0.080 0.010 0.030 0.007 0.063-0.010 0.1-0.013 0.037-0.042 0.068-0.085 0.095-0.11 0.080-0.239 0.141-0.389 0.185s-0.297 0.065-0.444 0.065zM22.694 29.957c-0.057 0-0.106-0.015-0.15-0.045s-0.078-0.078-0.105-0.145l-0.743-2.020c-0.020-0.057-0.027-0.106-0.020-0.15 0.010-0.043 0.032-0.076 0.065-0.1s0.075-0.035 0.125-0.035c0.050 0 0.090 0.012 0.12 0.035 0.033 0.023 0.060 0.067 0.080 0.13l0.698 1.995h-0.12l0.718-1.995c0.023-0.060 0.052-0.101 0.085-0.125 0.037-0.027 0.083-0.040 0.14-0.040 0.053 0 0.098 0.013 0.135 0.040s0.065 0.068 0.085 0.125l0.703 1.995h-0.115l0.708-2.005c0.023-0.060 0.052-0.1 0.085-0.12 0.033-0.023 0.073-0.035 0.12-0.035 0.053 0 0.093 0.013 0.12 0.040 0.030 0.027 0.047 0.061 0.050 0.105s-0.005 0.090-0.025 0.14l-0.743 2.020c-0.023 0.063-0.058 0.111-0.105 0.145-0.043 0.030-0.093 0.045-0.15 0.045s-0.106-0.015-0.15-0.045c-0.043-0.033-0.076-0.081-0.1-0.145l-0.738-2.025h0.214l-0.733 2.025c-0.023 0.063-0.057 0.111-0.1 0.145-0.043 0.030-0.095 0.045-0.155 0.045z"></path>
</symbol>
<symbol id="icon-burger" viewBox="0 0 53 32">
<path stroke-linejoin="miter" stroke-linecap="round" stroke-miterlimit="4" stroke-width="3.0476" d="M1.905 1.905h48.762M1.905 15.619h48.762M1.905 29.333h48.762"></path>
</symbol>
<symbol id="icon-logo_smile" viewBox="0 0 43 32">
<path fill="#825808" style="fill: var(--color3, #825808)" d="M42.536 0h-51.547v48.163h51.547v-48.163z"></path>
</symbol>
</defs>
</svg>
