<svg aria-hidden="true" style="position: absolute; width: 0; height: 0; overflow: hidden;" version="1.1" xmlns="http://www.w3.org/2000/svg" xmlns:xlink="http://www.w3.org/1999/xlink">
<defs>
<symbol id="icon-Line-1" viewBox="0 0 1520 32">
<path fill="none" stroke="#ceb181" style="stroke: var(--color1, #ceb181)" stroke-linejoin="miter" stroke-linecap="round" stroke-miterlimit="4" stroke-width="32" d="M16 16h1488"></path>
</symbol>
<symbol id="icon-burger" viewBox="0 0 53 32">
<path stroke-linejoin="miter" stroke-linecap="round" stroke-miterlimit="4" stroke-width="3.0476" d="M1.905 1.905h48.762M1.905 15.619h48.762M1.905 29.333h48.762"></path>
</symbol>
<symbol id="icon-iconheader" viewBox="0 0 34 32">
<path fill="#825808" style="fill: var(--color2, #825808)" d="M20.302 12.469c-1.942-2.734-4.034-4.902-6.353-7.475l-13.949 7.178v1.605l13.783-6.651 6.51 6.396 0.010-1.053zM20.302 16.229c-1.942-2.441-4.034-4.378-6.353-6.676l-13.949 6.412v1.434l13.783-5.941 6.509 5.712 0.011-0.941zM20.302 19.998c-1.942-2.132-4.034-3.823-6.353-5.83l-13.949 5.599v1.252l13.783-5.187 6.51 4.987 0.010-0.82zM20.302 23.583c-1.942-2.208-4.034-3.96-6.353-6.038l-13.949 5.799v1.296c1.272-0.496 5.867-2.287 13.783-5.373l6.509 5.167 0.011-0.851zM20.302 27.369c-1.942-1.863-4.034-3.341-6.353-5.094l-13.949 4.892v1.093l13.783-4.533 6.509 4.358 0.011-0.717zM20.302 31.236c-1.942-1.349-4.034-2.419-6.353-3.688l-13.949 3.543v0.792l13.783-3.282 6.509 3.155 0.011-0.519zM21.241 18.768l8.329-4.572 3.934 4.395c0 0 0.007-0.816 0.020-2.447-0.035 0.014-0.329-0.221-0.883-0.705v1.039l-2.971-3.744-8.429 4.932-0 1.102zM33.511 20.268c-1.174-1.652-2.437-2.962-3.839-4.517l-8.43 4.339v0.97l8.329-4.020 3.934 3.865 0.006-0.637zM33.511 22.54c-1.174-1.476-2.437-2.646-3.839-4.035l-8.43 3.875v0.866l8.329-3.59 3.934 3.452 0.006-0.569zM33.511 24.818c-1.174-1.288-2.437-2.31-3.839-3.523l-8.43 3.384v0.756l8.329-3.135 3.934 3.014 0.006-0.497zM33.511 26.984c-1.174-1.335-2.437-2.393-3.839-3.649l-8.43 3.506v0.783l8.329-3.247 3.934 3.123 0.006-0.515zM33.511 29.272c-1.174-1.126-2.437-2.019-3.839-3.078l-8.43 2.957v0.661l8.329-2.739 3.934 2.634c0 0 0.002-0.145 0.006-0.434l0.001-0.001zM33.511 31.609c-1.174-0.815-2.437-1.462-3.839-2.229l-8.43 2.142v0.478l8.329-1.983 3.934 1.907 0.006-0.315zM0 9.987l13.783-7.563 6.51 7.273 0.033-4.051c-0.058 0.023-0.545-0.366-1.461-1.166v1.718l-4.915-6.198-13.949 8.163v1.824z"></path>
</symbol>
<symbol id="icon-telegram" viewBox="0 0 32 32">
<path fill="none" stroke="#fff" style="stroke: var(--color3, #fff)" stroke-linejoin="miter" stroke-linecap="butt" stroke-miterlimit="4" stroke-width="0.8" d="M16 6.4c-5.302 0-9.6 4.298-9.6 9.6s4.298 9.6 9.6 9.6c5.302 0 9.6-4.298 9.6-9.6s-4.298-9.6-9.6-9.6zM20.715 12.977l-1.576 7.424c-0.116 0.526-0.43 0.654-0.867 0.406l-2.4-1.768-1.157 1.115c-0.057 0.073-0.129 0.133-0.213 0.174s-0.175 0.062-0.267 0.062h-0.004l0.17-2.443 4.448-4.018c0.192-0.17-0.043-0.267-0.298-0.097l-5.495 3.461-2.368-0.739c-0.512-0.162-0.526-0.512 0.108-0.763l9.253-3.566c0.43-0.157 0.732 0.269 0.646 0.846l0.020-0.094z"></path>
</symbol>
<symbol id="icon-youtube" viewBox="0 0 32 32">
<path fill="none" stroke="#fff" style="stroke: var(--color3, #fff)" stroke-linejoin="round" stroke-linecap="round" stroke-miterlimit="10" stroke-width="1.2" d="M20 22.4h-8c-2.4 0-4-1.6-4-4v-4.8c0-2.4 1.6-4 4-4h8c2.4 0 4 1.6 4 4v4.8c0 2.4-1.6 4-4 4z"></path>
<path fill="none" stroke="#fff" style="stroke: var(--color3, #fff)" stroke-linejoin="round" stroke-linecap="round" stroke-miterlimit="10" stroke-width="1.2" d="M15.52 14l2 1.2c0.72 0.48 0.72 1.2 0 1.68l-2 1.2c-0.8 0.48-1.44 0.080-1.44-0.8v-2.4c0-1.040 0.64-1.36 1.44-0.88z"></path>
</symbol>
<symbol id="icon-untitled" viewBox="0 0 32 32">
<path fill="none" stroke="#fff" style="stroke: var(--color3, #fff)" stroke-linejoin="miter" stroke-linecap="round" stroke-miterlimit="10" stroke-width="1.2" d="M17.6 13.84v2.32h2.080c0.16 0 0.24 0.16 0.24 0.32l-0.32 1.52c0 0.080-0.16 0.16-0.24 0.16h-1.76v5.84h-2.4v-5.76h-1.36c-0.16 0-0.24-0.080-0.24-0.24v-1.52c0-0.16 0.080-0.24 0.24-0.24h1.36v-2.64c0-1.36 1.040-2.4 2.4-2.4h2.16c0.16 0 0.24 0.080 0.24 0.24v1.92c0 0.16-0.080 0.24-0.24 0.24h-1.92c-0.16 0-0.24 0.080-0.24 0.24v0z"></path>
<path fill="none" stroke="#fff" style="stroke: var(--color3, #fff)" stroke-linejoin="round" stroke-linecap="round" stroke-miterlimit="4" stroke-width="1.2" d="M18.4 24h-4.8c-4 0-5.6-1.6-5.6-5.6v-4.8c0-4 1.6-5.6 5.6-5.6h4.8c4 0 5.6 1.6 5.6 5.6v4.8c0 4-1.6 5.6-5.6 5.6z"></path>
</symbol>
<symbol id="icon-1" viewBox="0 0 32 32">
<path fill="none" stroke="#fff" style="stroke: var(--color3, #fff)" stroke-linejoin="round" stroke-linecap="round" stroke-miterlimit="4" stroke-width="1.2" d="M13.6 24h4.8c4 0 5.6-1.6 5.6-5.6v-4.8c0-4-1.6-5.6-5.6-5.6h-4.8c-4 0-5.6 1.6-5.6 5.6v4.8c0 4 1.6 5.6 5.6 5.6z"></path>
<path fill="none" stroke="#fff" style="stroke: var(--color3, #fff)" stroke-linejoin="round" stroke-linecap="round" stroke-miterlimit="4" stroke-width="1.2" d="M16 18.8c0.368 0 0.732-0.072 1.072-0.213s0.648-0.347 0.908-0.607c0.26-0.26 0.466-0.569 0.607-0.908s0.213-0.704 0.213-1.072c0-0.368-0.072-0.732-0.213-1.072s-0.347-0.648-0.607-0.908c-0.26-0.26-0.569-0.466-0.908-0.607s-0.704-0.213-1.072-0.213c-0.743 0-1.455 0.295-1.98 0.82s-0.82 1.237-0.82 1.98c0 0.743 0.295 1.455 0.82 1.98s1.237 0.82 1.98 0.82z"></path>
<path fill="none" stroke="#fff" style="stroke: var(--color3, #fff)" stroke-linejoin="round" stroke-linecap="round" stroke-miterlimit="4" stroke-width="1.6" d="M20.509 12h0.010"></path>
</symbol>
<symbol id="icon-iconbig" viewBox="0 0 35 32">
<path fill="#d0ba91" style="fill: var(--color4, #d0ba91)" d="M21.141 12.469c-2.023-2.734-4.201-4.902-6.616-7.475l-14.525 7.178v1.605l14.353-6.652 6.779 6.396 0.010-1.053zM21.141 16.229c-2.023-2.441-4.201-4.378-6.616-6.676l-14.525 6.412v1.434l14.353-5.941 6.778 5.712 0.011-0.941zM21.141 19.998c-2.023-2.132-4.201-3.823-6.616-5.83l-14.525 5.599v1.252l14.353-5.187 6.779 4.987 0.010-0.82zM21.141 23.583c-2.023-2.208-4.201-3.96-6.616-6.038l-14.525 5.799v1.296c1.325-0.496 6.109-2.287 14.353-5.373l6.778 5.167 0.011-0.851zM21.141 27.369c-2.023-1.863-4.201-3.34-6.616-5.094l-14.525 4.892v1.093l14.353-4.533 6.778 4.359 0.011-0.717zM21.141 31.236c-2.023-1.349-4.201-2.419-6.616-3.688l-14.525 3.543v0.792l14.353-3.282 6.778 3.155 0.011-0.519zM22.119 18.768l8.674-4.572 4.096 4.395c0 0 0.007-0.816 0.021-2.447-0.036 0.014-0.343-0.221-0.919-0.705v1.039l-3.094-3.744-8.777 4.932-0.001 1.102zM34.895 20.268c-1.223-1.652-2.538-2.962-3.998-4.517l-8.778 4.339v0.97l8.674-4.020 4.096 3.865 0.007-0.637zM34.895 22.54c-1.223-1.476-2.538-2.646-3.998-4.035l-8.778 3.875v0.866l8.674-3.59 4.096 3.452 0.007-0.569zM34.895 24.818c-1.223-1.288-2.538-2.31-3.998-3.523l-8.778 3.384v0.756l8.674-3.135 4.096 3.014 0.007-0.497zM34.895 26.984c-1.223-1.335-2.538-2.393-3.998-3.649l-8.778 3.506v0.783l8.674-3.247 4.096 3.123 0.007-0.515zM34.895 29.272c-1.223-1.126-2.538-2.019-3.998-3.078l-8.778 2.957v0.661l8.673-2.739 4.096 2.634c0 0 0.002-0.145 0.006-0.434l0.001-0.001zM34.895 31.609c-1.223-0.815-2.538-1.462-3.998-2.229l-8.778 2.141v0.479l8.674-1.983 4.096 1.907 0.007-0.315zM0 9.987l14.353-7.563 6.779 7.273 0.034-4.051c-0.060 0.023-0.567-0.366-1.522-1.166v1.718l-5.119-6.199-14.525 8.163v1.824z"></path>
</symbol>
<symbol id="icon-home" viewBox="0 0 32 32">
<path d="M32 18.451l-16-12.42-16 12.42v-5.064l16-12.42 16 12.42zM28 18v12h-8v-8h-8v8h-8v-12l12-9z"></path>
</symbol>
<symbol id="icon-office" viewBox="0 0 32 32">
<path d="M0 32h16v-32h-16v32zM10 4h4v4h-4v-4zM10 12h4v4h-4v-4zM10 20h4v4h-4v-4zM2 4h4v4h-4v-4zM2 12h4v4h-4v-4zM2 20h4v4h-4v-4zM18 10h14v2h-14zM18 32h4v-8h6v8h4v-18h-14z"></path>
</symbol>
<symbol id="icon-newspaper" viewBox="0 0 32 32">
<path d="M28 8v-4h-28v22c0 1.105 0.895 2 2 2h27c1.657 0 3-1.343 3-3v-17h-4zM26 26h-24v-20h24v20zM4 10h20v2h-20zM16 14h8v2h-8zM16 18h8v2h-8zM16 22h6v2h-6zM4 14h10v10h-10z"></path>
</symbol>
<symbol id="icon-pencil2" viewBox="0 0 32 32">
<path d="M12 20l4-2 14-14-2-2-14 14-2 4zM9.041 27.097c-0.989-2.085-2.052-3.149-4.137-4.137l3.097-8.525 4-2.435 12-12h-6l-12 12-6 20 20-6 12-12v-6l-12 12-2.435 4z"></path>
</symbol>
</defs>
</svg>
